<svg width="360" height="360" viewBox="0 0 360 360" fill="none" xmlns="http://www.w3.org/2000/svg">
<path d="M349 349H11V11H349V349ZM13 347H35V325H13V347ZM37 347H59V325H37V347ZM61 347H83V325H61V347ZM85 347H107V325H85V347ZM109 347H131V325H109V347ZM133 347H155V325H133V347ZM157 347H179V325H157V347ZM181 347H203V325H181V347ZM205 347H227V325H205V347ZM229 347H251V325H229V347ZM253 347H275V325H253V347ZM277 347H299V325H277V347ZM301 325V347H323V325H301ZM301 323H323V301H301V323ZM13 323H35V301H13V323ZM37 323H59V301H37V323ZM61 323H83V301H61V323ZM85 323H107V301H85V323ZM109 323H131V301H109V323ZM133 323H155V301H133V323ZM157 323H179V301H157V323ZM181 323H203V301H181V323ZM205 323H227V301H205V323ZM229 323H251V301H229V323ZM253 323H275V301H253V323ZM277 323H299V301H277V323ZM13 299H35V277H13V299ZM37 299H59V277H37V299ZM61 299H83V277H61V299ZM85 299H107V277H85V299ZM109 299H131V277H109V299ZM133 299H155V277H133V299ZM157 299H179V277H157V299ZM181 299H203V277H181V299ZM205 299H227V277H205V299ZM229 299H251V277H229V299ZM253 299H275V277H253V299ZM277 299H299V277H277V299ZM301 299H323V277H301V299ZM325 299H347V277H325V299ZM13 275H35V253H13V275ZM37 275H59V253H37V275ZM61 275H83V253H61V275ZM85 275H107V253H85V275ZM109 275H131V253H109V275ZM133 275H155V253H133V275ZM157 275H179V253H157V275ZM181 275H203V253H181V275ZM205 275H227V253H205V275ZM229 275H251V253H229V275ZM253 275H275V253H253V275ZM277 275H299V253H277V275ZM301 275H323V253H301V275ZM325 275H347V253H325V275ZM13 251H35V229H13V251ZM37 251H59V229H37V251ZM61 251H83V229H61V251ZM85 251H107V229H85V251ZM109 251H131V229H109V251ZM133 251H155V229H133V251ZM157 251H179V229H157V251ZM181 251H203V229H181V251ZM205 251H227V229H205V251ZM229 251H251V229H229V251ZM253 251H275V229H253V251ZM277 251H299V229H277V251ZM301 251H323V229H301V251ZM325 251H347V229H325V251ZM13 227H35V205H13V227ZM37 227H59V205H37V227ZM61 227H83V205H61V227ZM85 227H107V205H85V227ZM109 227H131V205H109V227ZM133 227H155V205H133V227ZM157 227H179V205H157V227ZM181 227H203V205H181V227ZM205 227H227V205H205V227ZM229 227H251V205H229V227ZM253 227H275V205H253V227ZM277 227H299V205H277V227ZM301 227H323V205H301V227ZM325 227H347V205H325V227ZM13 203H35V181H13V203ZM37 203H59V181H37V203ZM61 203H83V181H61V203ZM85 203H107V181H85V203ZM109 203H131V181H109V203ZM133 203H155V181H133V203ZM157 203H179V181H157V203ZM181 203H203V181H181V203ZM205 203H227V181H205V203ZM229 203H251V181H229V203ZM253 203H275V181H253V203ZM277 203H299V181H277V203ZM301 203H323V181H301V203ZM325 203H347V181H325V203ZM13 179H35V157H13V179ZM37 179H59V157H37V179ZM61 179H83V157H61V179ZM85 179H107V157H85V179ZM109 179H131V157H109V179ZM133 179H155V157H133V179ZM157 179H179V157H157V179ZM181 179H203V157H181V179ZM205 179H227V157H205V179ZM229 179H251V157H229V179ZM253 179H275V157H253V179ZM277 179H299V157H277V179ZM301 179H323V157H301V179ZM325 179H347V157H325V179ZM13 155H35V133H13V155ZM37 155H59V133H37V155ZM61 155H83V133H61V155ZM85 155H107V133H85V155ZM109 155H131V133H109V155ZM133 155H155V133H133V155ZM157 155H179V133H157V155ZM181 155H203V133H181V155ZM205 155H227V133H205V155ZM229 155H251V133H229V155ZM253 155H275V133H253V155ZM277 155H299V133H277V155ZM301 155H323V133H301V155ZM325 155H347V133H325V155ZM13 131H35V109H13V131ZM37 131H59V109H37V131ZM61 131H83V109H61V131ZM85 131H107V109H85V131ZM109 131H131V109H109V131ZM133 131H155V109H133V131ZM157 131H179V109H157V131ZM181 131H203V109H181V131ZM205 131H227V109H205V131ZM229 131H251V109H229V131ZM253 131H275V109H253V131ZM277 131H299V109H277V131ZM301 131H323V109H301V131ZM325 131H347V109H325V131ZM13 107H35V85H13V107ZM37 107H59V85H37V107ZM61 107H83V85H61V107ZM85 107H107V85H85V107ZM109 107H131V85H109V107ZM133 107H155V85H133V107ZM157 107H179V85H157V107ZM181 107H203V85H181V107ZM205 107H227V85H205V107ZM229 107H251V85H229V107ZM253 107H275V85H253V107ZM277 107H299V85H277V107ZM301 107H323V85H301V107ZM325 107H347V85H325V107ZM13 83H35V61H13V83ZM37 83H59V61H37V83ZM61 83H83V61H61V83ZM85 83H107V61H85V83ZM109 83H131V61H109V83ZM133 83H155V61H133V83ZM157 83H179V61H157V83ZM181 83H203V61H181V83ZM205 83H227V61H205V83ZM229 83H251V61H229V83ZM253 83H275V61H253V83ZM277 83H299V61H277V83ZM301 83H323V61H301V83ZM325 83H347V61H325V83ZM13 59H35V37H13V59ZM37 59H59V37H37V59ZM61 59H83V37H61V59ZM85 59H107V37H85V59ZM109 59H131V37H109V59ZM133 59H155V37H133V59ZM157 59H179V37H157V59ZM181 59H203V37H181V59ZM205 59H227V37H205V59ZM229 59H251V37H229V59ZM253 59H275V37H253V59ZM277 59H299V37H277V59ZM301 59H323V37H301V59ZM325 59H347V37H325V59ZM13 35H35V13H13V35ZM37 35H59V13H37V35ZM61 35H83V13H61V35ZM85 35H107V13H85V35ZM109 35H131V13H109V35ZM133 35H155V13H133V35ZM157 35H179V13H157V35ZM181 35H203V13H181V35ZM205 35H227V13H205V35ZM229 35H251V13H229V35ZM253 35H275V13H253V35ZM277 35H299V13H277V35ZM301 35H323V13H301V35ZM325 35H347V13H325V35ZM325 347H347V325H325V347ZM325 323H347V301H325V323Z" fill="#7F7F7F"/>
</svg>
